<?xml version="1.0" encoding="utf-8" standalone="no"?>
<!DOCTYPE svg PUBLIC "-//W3C//DTD SVG 1.1//EN"
  "http://www.w3.org/Graphics/SVG/1.1/DTD/svg11.dtd">
<!-- Created with matplotlib (http://matplotlib.org/) -->
<svg height="432pt" version="1.1" viewBox="0 0 720 432" width="720pt" xmlns="http://www.w3.org/2000/svg" xmlns:xlink="http://www.w3.org/1999/xlink">
 <defs>
  <style type="text/css">
*{stroke-linecap:butt;stroke-linejoin:round;}
  </style>
 </defs>
 <g id="figure_1">
  <g id="patch_1">
   <path d="
M0 432
L720 432
L720 0
L0 0
z
" style="fill:#ffffff;"/>
  </g>
  <g id="axes_1">
   <g id="patch_2">
    <path d="
M50.4 388.8
L468 388.8
L468 21.6
L50.4 21.6
z
" style="fill:#ffffff;"/>
   </g>
   <g id="line2d_1">
    <path clip-path="url(#pd6956b075c)" d="
M50.4 297.295
L68.5565 301.675
L86.713 305.829
L104.87 309.761
L123.026 313.479
L141.183 316.987
L159.339 320.292
L177.496 323.398
L195.652 326.31
L213.809 329.032
L231.965 331.57
L250.122 333.925
L268.278 336.106
L286.435 338.111
L304.591 339.947
L322.748 341.614
L340.904 343.117
L359.061 344.457
L377.217 345.626
L395.374 346.661
L413.53 347.527
L431.687 348.242
L449.843 348.803
L468 349.213" style="fill:none;stroke:#008000;stroke-linecap:square;stroke-width:3;"/>
   </g>
   <g id="matplotlib.axis_1">
    <g id="xtick_1">
     <g id="line2d_2">
      <defs>
       <path d="
M0 0
L0 -4" id="m93b0483c22" style="stroke:#000000;stroke-width:0.5;"/>
      </defs>
      <g>
       <use style="stroke:#000000;stroke-width:0.5;" x="50.4" xlink:href="#m93b0483c22" y="388.8"/>
      </g>
     </g>
     <g id="line2d_3">
      <defs>
       <path d="
M0 0
L0 4" id="m741efc42ff" style="stroke:#000000;stroke-width:0.5;"/>
      </defs>
      <g>
       <use style="stroke:#000000;stroke-width:0.5;" x="50.4" xlink:href="#m741efc42ff" y="21.6"/>
      </g>
     </g>
     <g id="text_1">
      <!-- 0.70 -->
      <defs>
       <path d="
M31.7812 66.4062
Q24.1719 66.4062 20.3281 58.9062
Q16.5 51.4219 16.5 36.375
Q16.5 21.3906 20.3281 13.8906
Q24.1719 6.39062 31.7812 6.39062
Q39.4531 6.39062 43.2812 13.8906
Q47.125 21.3906 47.125 36.375
Q47.125 51.4219 43.2812 58.9062
Q39.4531 66.4062 31.7812 66.4062
M31.7812 74.2188
Q44.0469 74.2188 50.5156 64.5156
Q56.9844 54.8281 56.9844 36.375
Q56.9844 17.9688 50.5156 8.26562
Q44.0469 -1.42188 31.7812 -1.42188
Q19.5312 -1.42188 13.0625 8.26562
Q6.59375 17.9688 6.59375 36.375
Q6.59375 54.8281 13.0625 64.5156
Q19.5312 74.2188 31.7812 74.2188" id="BitstreamVeraSans-Roman-30"/>
       <path d="
M10.6875 12.4062
L21 12.4062
L21 0
L10.6875 0
z
" id="BitstreamVeraSans-Roman-2e"/>
       <path d="
M8.20312 72.9062
L55.0781 72.9062
L55.0781 68.7031
L28.6094 0
L18.3125 0
L43.2188 64.5938
L8.20312 64.5938
z
" id="BitstreamVeraSans-Roman-37"/>
      </defs>
      <g transform="translate(37.8346875 401.918125)scale(0.12 -0.12)">
       <use xlink:href="#BitstreamVeraSans-Roman-30"/>
       <use x="63.623046875" xlink:href="#BitstreamVeraSans-Roman-2e"/>
       <use x="95.41015625" xlink:href="#BitstreamVeraSans-Roman-37"/>
       <use x="159.033203125" xlink:href="#BitstreamVeraSans-Roman-30"/>
      </g>
     </g>
    </g>
    <g id="xtick_2">
     <g id="line2d_4">
      <g>
       <use style="stroke:#000000;stroke-width:0.5;" x="141.182608696" xlink:href="#m93b0483c22" y="388.8"/>
      </g>
     </g>
     <g id="line2d_5">
      <g>
       <use style="stroke:#000000;stroke-width:0.5;" x="141.182608696" xlink:href="#m741efc42ff" y="21.6"/>
      </g>
     </g>
     <g id="text_2">
      <!-- 0.75 -->
      <defs>
       <path d="
M10.7969 72.9062
L49.5156 72.9062
L49.5156 64.5938
L19.8281 64.5938
L19.8281 46.7344
Q21.9688 47.4688 24.1094 47.8281
Q26.2656 48.1875 28.4219 48.1875
Q40.625 48.1875 47.75 41.5
Q54.8906 34.8125 54.8906 23.3906
Q54.8906 11.625 47.5625 5.09375
Q40.2344 -1.42188 26.9062 -1.42188
Q22.3125 -1.42188 17.5469 -0.640625
Q12.7969 0.140625 7.71875 1.70312
L7.71875 11.625
Q12.1094 9.23438 16.7969 8.0625
Q21.4844 6.89062 26.7031 6.89062
Q35.1562 6.89062 40.0781 11.3281
Q45.0156 15.7656 45.0156 23.3906
Q45.0156 31 40.0781 35.4375
Q35.1562 39.8906 26.7031 39.8906
Q22.75 39.8906 18.8125 39.0156
Q14.8906 38.1406 10.7969 36.2812
z
" id="BitstreamVeraSans-Roman-35"/>
      </defs>
      <g transform="translate(128.742921196 401.918125)scale(0.12 -0.12)">
       <use xlink:href="#BitstreamVeraSans-Roman-30"/>
       <use x="63.623046875" xlink:href="#BitstreamVeraSans-Roman-2e"/>
       <use x="95.41015625" xlink:href="#BitstreamVeraSans-Roman-37"/>
       <use x="159.033203125" xlink:href="#BitstreamVeraSans-Roman-35"/>
      </g>
     </g>
    </g>
    <g id="xtick_3">
     <g id="line2d_6">
      <g>
       <use style="stroke:#000000;stroke-width:0.5;" x="231.965217391" xlink:href="#m93b0483c22" y="388.8"/>
      </g>
     </g>
     <g id="line2d_7">
      <g>
       <use style="stroke:#000000;stroke-width:0.5;" x="231.965217391" xlink:href="#m741efc42ff" y="21.6"/>
      </g>
     </g>
     <g id="text_3">
      <!-- 0.80 -->
      <defs>
       <path d="
M31.7812 34.625
Q24.75 34.625 20.7188 30.8594
Q16.7031 27.0938 16.7031 20.5156
Q16.7031 13.9219 20.7188 10.1562
Q24.75 6.39062 31.7812 6.39062
Q38.8125 6.39062 42.8594 10.1719
Q46.9219 13.9688 46.9219 20.5156
Q46.9219 27.0938 42.8906 30.8594
Q38.875 34.625 31.7812 34.625
M21.9219 38.8125
Q15.5781 40.375 12.0312 44.7188
Q8.5 49.0781 8.5 55.3281
Q8.5 64.0625 14.7188 69.1406
Q20.9531 74.2188 31.7812 74.2188
Q42.6719 74.2188 48.875 69.1406
Q55.0781 64.0625 55.0781 55.3281
Q55.0781 49.0781 51.5312 44.7188
Q48 40.375 41.7031 38.8125
Q48.8281 37.1562 52.7969 32.3125
Q56.7812 27.4844 56.7812 20.5156
Q56.7812 9.90625 50.3125 4.23438
Q43.8438 -1.42188 31.7812 -1.42188
Q19.7344 -1.42188 13.25 4.23438
Q6.78125 9.90625 6.78125 20.5156
Q6.78125 27.4844 10.7812 32.3125
Q14.7969 37.1562 21.9219 38.8125
M18.3125 54.3906
Q18.3125 48.7344 21.8438 45.5625
Q25.3906 42.3906 31.7812 42.3906
Q38.1406 42.3906 41.7188 45.5625
Q45.3125 48.7344 45.3125 54.3906
Q45.3125 60.0625 41.7188 63.2344
Q38.1406 66.4062 31.7812 66.4062
Q25.3906 66.4062 21.8438 63.2344
Q18.3125 60.0625 18.3125 54.3906" id="BitstreamVeraSans-Roman-38"/>
      </defs>
      <g transform="translate(219.399904891 401.918125)scale(0.12 -0.12)">
       <use xlink:href="#BitstreamVeraSans-Roman-30"/>
       <use x="63.623046875" xlink:href="#BitstreamVeraSans-Roman-2e"/>
       <use x="95.41015625" xlink:href="#BitstreamVeraSans-Roman-38"/>
       <use x="159.033203125" xlink:href="#BitstreamVeraSans-Roman-30"/>
      </g>
     </g>
    </g>
    <g id="xtick_4">
     <g id="line2d_8">
      <g>
       <use style="stroke:#000000;stroke-width:0.5;" x="322.747826087" xlink:href="#m93b0483c22" y="388.8"/>
      </g>
     </g>
     <g id="line2d_9">
      <g>
       <use style="stroke:#000000;stroke-width:0.5;" x="322.747826087" xlink:href="#m741efc42ff" y="21.6"/>
      </g>
     </g>
     <g id="text_4">
      <!-- 0.85 -->
      <g transform="translate(310.308138587 401.918125)scale(0.12 -0.12)">
       <use xlink:href="#BitstreamVeraSans-Roman-30"/>
       <use x="63.623046875" xlink:href="#BitstreamVeraSans-Roman-2e"/>
       <use x="95.41015625" xlink:href="#BitstreamVeraSans-Roman-38"/>
       <use x="159.033203125" xlink:href="#BitstreamVeraSans-Roman-35"/>
      </g>
     </g>
    </g>
    <g id="xtick_5">
     <g id="line2d_10">
      <g>
       <use style="stroke:#000000;stroke-width:0.5;" x="413.530434783" xlink:href="#m93b0483c22" y="388.8"/>
      </g>
     </g>
     <g id="line2d_11">
      <g>
       <use style="stroke:#000000;stroke-width:0.5;" x="413.530434783" xlink:href="#m741efc42ff" y="21.6"/>
      </g>
     </g>
     <g id="text_5">
      <!-- 0.90 -->
      <defs>
       <path d="
M10.9844 1.51562
L10.9844 10.5
Q14.7031 8.73438 18.5 7.8125
Q22.3125 6.89062 25.9844 6.89062
Q35.75 6.89062 40.8906 13.4531
Q46.0469 20.0156 46.7812 33.4062
Q43.9531 29.2031 39.5938 26.9531
Q35.25 24.7031 29.9844 24.7031
Q19.0469 24.7031 12.6719 31.3125
Q6.29688 37.9375 6.29688 49.4219
Q6.29688 60.6406 12.9375 67.4219
Q19.5781 74.2188 30.6094 74.2188
Q43.2656 74.2188 49.9219 64.5156
Q56.5938 54.8281 56.5938 36.375
Q56.5938 19.1406 48.4062 8.85938
Q40.2344 -1.42188 26.4219 -1.42188
Q22.7031 -1.42188 18.8906 -0.6875
Q15.0938 0.046875 10.9844 1.51562
M30.6094 32.4219
Q37.25 32.4219 41.125 36.9531
Q45.0156 41.5 45.0156 49.4219
Q45.0156 57.2812 41.125 61.8438
Q37.25 66.4062 30.6094 66.4062
Q23.9688 66.4062 20.0938 61.8438
Q16.2188 57.2812 16.2188 49.4219
Q16.2188 41.5 20.0938 36.9531
Q23.9688 32.4219 30.6094 32.4219" id="BitstreamVeraSans-Roman-39"/>
      </defs>
      <g transform="translate(400.965122283 401.918125)scale(0.12 -0.12)">
       <use xlink:href="#BitstreamVeraSans-Roman-30"/>
       <use x="63.623046875" xlink:href="#BitstreamVeraSans-Roman-2e"/>
       <use x="95.41015625" xlink:href="#BitstreamVeraSans-Roman-39"/>
       <use x="159.033203125" xlink:href="#BitstreamVeraSans-Roman-30"/>
      </g>
     </g>
    </g>
    <g id="text_6">
     <!-- Max Pod Mach -->
     <defs>
      <path id="BitstreamVeraSans-Roman-20"/>
      <path d="
M9.8125 72.9062
L24.5156 72.9062
L43.1094 23.2969
L61.8125 72.9062
L76.5156 72.9062
L76.5156 0
L66.8906 0
L66.8906 64.0156
L48.0938 14.0156
L38.1875 14.0156
L19.3906 64.0156
L19.3906 0
L9.8125 0
z
" id="BitstreamVeraSans-Roman-4d"/>
      <path d="
M30.6094 48.3906
Q23.3906 48.3906 19.1875 42.75
Q14.9844 37.1094 14.9844 27.2969
Q14.9844 17.4844 19.1562 11.8438
Q23.3438 6.20312 30.6094 6.20312
Q37.7969 6.20312 41.9844 11.8594
Q46.1875 17.5312 46.1875 27.2969
Q46.1875 37.0156 41.9844 42.7031
Q37.7969 48.3906 30.6094 48.3906
M30.6094 56
Q42.3281 56 49.0156 48.375
Q55.7188 40.7656 55.7188 27.2969
Q55.7188 13.875 49.0156 6.21875
Q42.3281 -1.42188 30.6094 -1.42188
Q18.8438 -1.42188 12.1719 6.21875
Q5.51562 13.875 5.51562 27.2969
Q5.51562 40.7656 12.1719 48.375
Q18.8438 56 30.6094 56" id="BitstreamVeraSans-Roman-6f"/>
      <path d="
M19.6719 64.7969
L19.6719 37.4062
L32.0781 37.4062
Q38.9688 37.4062 42.7188 40.9688
Q46.4844 44.5312 46.4844 51.125
Q46.4844 57.6719 42.7188 61.2344
Q38.9688 64.7969 32.0781 64.7969
z

M9.8125 72.9062
L32.0781 72.9062
Q44.3438 72.9062 50.6094 67.3594
Q56.8906 61.8125 56.8906 51.125
Q56.8906 40.3281 50.6094 34.8125
Q44.3438 29.2969 32.0781 29.2969
L19.6719 29.2969
L19.6719 0
L9.8125 0
z
" id="BitstreamVeraSans-Roman-50"/>
      <path d="
M54.8906 33.0156
L54.8906 0
L45.9062 0
L45.9062 32.7188
Q45.9062 40.4844 42.875 44.3281
Q39.8438 48.1875 33.7969 48.1875
Q26.5156 48.1875 22.3125 43.5469
Q18.1094 38.9219 18.1094 30.9062
L18.1094 0
L9.07812 0
L9.07812 75.9844
L18.1094 75.9844
L18.1094 46.1875
Q21.3438 51.125 25.7031 53.5625
Q30.0781 56 35.7969 56
Q45.2188 56 50.0469 50.1719
Q54.8906 44.3438 54.8906 33.0156" id="BitstreamVeraSans-Roman-68"/>
      <path d="
M54.8906 54.6875
L35.1094 28.0781
L55.9062 0
L45.3125 0
L29.3906 21.4844
L13.4844 0
L2.875 0
L24.125 28.6094
L4.6875 54.6875
L15.2812 54.6875
L29.7812 35.2031
L44.2812 54.6875
z
" id="BitstreamVeraSans-Roman-78"/>
      <path d="
M45.4062 46.3906
L45.4062 75.9844
L54.3906 75.9844
L54.3906 0
L45.4062 0
L45.4062 8.20312
Q42.5781 3.32812 38.25 0.953125
Q33.9375 -1.42188 27.875 -1.42188
Q17.9688 -1.42188 11.7344 6.48438
Q5.51562 14.4062 5.51562 27.2969
Q5.51562 40.1875 11.7344 48.0938
Q17.9688 56 27.875 56
Q33.9375 56 38.25 53.625
Q42.5781 51.2656 45.4062 46.3906
M14.7969 27.2969
Q14.7969 17.3906 18.875 11.75
Q22.9531 6.10938 30.0781 6.10938
Q37.2031 6.10938 41.2969 11.75
Q45.4062 17.3906 45.4062 27.2969
Q45.4062 37.2031 41.2969 42.8438
Q37.2031 48.4844 30.0781 48.4844
Q22.9531 48.4844 18.875 42.8438
Q14.7969 37.2031 14.7969 27.2969" id="BitstreamVeraSans-Roman-64"/>
      <path d="
M34.2812 27.4844
Q23.3906 27.4844 19.1875 25
Q14.9844 22.5156 14.9844 16.5
Q14.9844 11.7188 18.1406 8.90625
Q21.2969 6.10938 26.7031 6.10938
Q34.1875 6.10938 38.7031 11.4062
Q43.2188 16.7031 43.2188 25.4844
L43.2188 27.4844
z

M52.2031 31.2031
L52.2031 0
L43.2188 0
L43.2188 8.29688
Q40.1406 3.32812 35.5469 0.953125
Q30.9531 -1.42188 24.3125 -1.42188
Q15.9219 -1.42188 10.9531 3.29688
Q6 8.01562 6 15.9219
Q6 25.1406 12.1719 29.8281
Q18.3594 34.5156 30.6094 34.5156
L43.2188 34.5156
L43.2188 35.4062
Q43.2188 41.6094 39.1406 45
Q35.0625 48.3906 27.6875 48.3906
Q23 48.3906 18.5469 47.2656
Q14.1094 46.1406 10.0156 43.8906
L10.0156 52.2031
Q14.9375 54.1094 19.5781 55.0469
Q24.2188 56 28.6094 56
Q40.4844 56 46.3438 49.8438
Q52.2031 43.7031 52.2031 31.2031" id="BitstreamVeraSans-Roman-61"/>
      <path d="
M48.7812 52.5938
L48.7812 44.1875
Q44.9688 46.2969 41.1406 47.3438
Q37.3125 48.3906 33.4062 48.3906
Q24.6562 48.3906 19.8125 42.8438
Q14.9844 37.3125 14.9844 27.2969
Q14.9844 17.2812 19.8125 11.7344
Q24.6562 6.20312 33.4062 6.20312
Q37.3125 6.20312 41.1406 7.25
Q44.9688 8.29688 48.7812 10.4062
L48.7812 2.09375
Q45.0156 0.34375 40.9844 -0.53125
Q36.9688 -1.42188 32.4219 -1.42188
Q20.0625 -1.42188 12.7812 6.34375
Q5.51562 14.1094 5.51562 27.2969
Q5.51562 40.6719 12.8594 48.3281
Q20.2188 56 33.0156 56
Q37.1562 56 41.1094 55.1406
Q45.0625 54.2969 48.7812 52.5938" id="BitstreamVeraSans-Roman-63"/>
     </defs>
     <g transform="translate(195.3815625 423.0909375)scale(0.18 -0.18)">
      <use xlink:href="#BitstreamVeraSans-Roman-4d"/>
      <use x="86.279296875" xlink:href="#BitstreamVeraSans-Roman-61"/>
      <use x="147.55859375" xlink:href="#BitstreamVeraSans-Roman-78"/>
      <use x="206.73828125" xlink:href="#BitstreamVeraSans-Roman-20"/>
      <use x="238.525390625" xlink:href="#BitstreamVeraSans-Roman-50"/>
      <use x="295.203125" xlink:href="#BitstreamVeraSans-Roman-6f"/>
      <use x="356.384765625" xlink:href="#BitstreamVeraSans-Roman-64"/>
      <use x="419.861328125" xlink:href="#BitstreamVeraSans-Roman-20"/>
      <use x="451.6484375" xlink:href="#BitstreamVeraSans-Roman-4d"/>
      <use x="537.927734375" xlink:href="#BitstreamVeraSans-Roman-61"/>
      <use x="599.20703125" xlink:href="#BitstreamVeraSans-Roman-63"/>
      <use x="654.1875" xlink:href="#BitstreamVeraSans-Roman-68"/>
     </g>
    </g>
   </g>
   <g id="matplotlib.axis_2">
    <g id="ytick_1">
     <g id="line2d_12">
      <defs>
       <path d="
M0 0
L4 0" id="m8427bd86d6" style="stroke:#008000;stroke-width:0.5;"/>
      </defs>
      <g>
       <use style="fill:#008000;stroke:#008000;stroke-width:0.5;" x="50.4" xlink:href="#m8427bd86d6" y="388.8"/>
      </g>
     </g>
     <g id="text_7">
      <!-- 280 -->
      <defs>
       <path d="
M19.1875 8.29688
L53.6094 8.29688
L53.6094 0
L7.32812 0
L7.32812 8.29688
Q12.9375 14.1094 22.625 23.8906
Q32.3281 33.6875 34.8125 36.5312
Q39.5469 41.8438 41.4219 45.5312
Q43.3125 49.2188 43.3125 52.7812
Q43.3125 58.5938 39.2344 62.25
Q35.1562 65.9219 28.6094 65.9219
Q23.9688 65.9219 18.8125 64.3125
Q13.6719 62.7031 7.8125 59.4219
L7.8125 69.3906
Q13.7656 71.7812 18.9375 73
Q24.125 74.2188 28.4219 74.2188
Q39.75 74.2188 46.4844 68.5469
Q53.2188 62.8906 53.2188 53.4219
Q53.2188 48.9219 51.5312 44.8906
Q49.8594 40.875 45.4062 35.4062
Q44.1875 33.9844 37.6406 27.2188
Q31.1094 20.4531 19.1875 8.29688" id="BitstreamVeraSans-Roman-32"/>
      </defs>
      <g style="fill:#008000;" transform="translate(25.17125 392.11125)scale(0.12 -0.12)">
       <use xlink:href="#BitstreamVeraSans-Roman-32"/>
       <use x="63.623046875" xlink:href="#BitstreamVeraSans-Roman-38"/>
       <use x="127.24609375" xlink:href="#BitstreamVeraSans-Roman-30"/>
      </g>
     </g>
    </g>
    <g id="ytick_2">
     <g id="line2d_13">
      <g>
       <use style="fill:#008000;stroke:#008000;stroke-width:0.5;" x="50.4" xlink:href="#m8427bd86d6" y="336.342857143"/>
      </g>
     </g>
     <g id="text_8">
      <!-- 300 -->
      <defs>
       <path d="
M40.5781 39.3125
Q47.6562 37.7969 51.625 33
Q55.6094 28.2188 55.6094 21.1875
Q55.6094 10.4062 48.1875 4.48438
Q40.7656 -1.42188 27.0938 -1.42188
Q22.5156 -1.42188 17.6562 -0.515625
Q12.7969 0.390625 7.625 2.20312
L7.625 11.7188
Q11.7188 9.32812 16.5938 8.10938
Q21.4844 6.89062 26.8125 6.89062
Q36.0781 6.89062 40.9375 10.5469
Q45.7969 14.2031 45.7969 21.1875
Q45.7969 27.6406 41.2812 31.2656
Q36.7656 34.9062 28.7188 34.9062
L20.2188 34.9062
L20.2188 43.0156
L29.1094 43.0156
Q36.375 43.0156 40.2344 45.9219
Q44.0938 48.8281 44.0938 54.2969
Q44.0938 59.9062 40.1094 62.9062
Q36.1406 65.9219 28.7188 65.9219
Q24.6562 65.9219 20.0156 65.0312
Q15.375 64.1562 9.8125 62.3125
L9.8125 71.0938
Q15.4375 72.6562 20.3438 73.4375
Q25.25 74.2188 29.5938 74.2188
Q40.8281 74.2188 47.3594 69.1094
Q53.9062 64.0156 53.9062 55.3281
Q53.9062 49.2656 50.4375 45.0938
Q46.9688 40.9219 40.5781 39.3125" id="BitstreamVeraSans-Roman-33"/>
      </defs>
      <g style="fill:#008000;" transform="translate(25.206875 339.654107143)scale(0.12 -0.12)">
       <use xlink:href="#BitstreamVeraSans-Roman-33"/>
       <use x="63.623046875" xlink:href="#BitstreamVeraSans-Roman-30"/>
       <use x="127.24609375" xlink:href="#BitstreamVeraSans-Roman-30"/>
      </g>
     </g>
    </g>
    <g id="ytick_3">
     <g id="line2d_14">
      <g>
       <use style="fill:#008000;stroke:#008000;stroke-width:0.5;" x="50.4" xlink:href="#m8427bd86d6" y="283.885714286"/>
      </g>
     </g>
     <g id="text_9">
      <!-- 320 -->
      <g style="fill:#008000;" transform="translate(25.206875 287.196964286)scale(0.12 -0.12)">
       <use xlink:href="#BitstreamVeraSans-Roman-33"/>
       <use x="63.623046875" xlink:href="#BitstreamVeraSans-Roman-32"/>
       <use x="127.24609375" xlink:href="#BitstreamVeraSans-Roman-30"/>
      </g>
     </g>
    </g>
    <g id="ytick_4">
     <g id="line2d_15">
      <g>
       <use style="fill:#008000;stroke:#008000;stroke-width:0.5;" x="50.4" xlink:href="#m8427bd86d6" y="231.428571429"/>
      </g>
     </g>
     <g id="text_10">
      <!-- 340 -->
      <defs>
       <path d="
M37.7969 64.3125
L12.8906 25.3906
L37.7969 25.3906
z

M35.2031 72.9062
L47.6094 72.9062
L47.6094 25.3906
L58.0156 25.3906
L58.0156 17.1875
L47.6094 17.1875
L47.6094 0
L37.7969 0
L37.7969 17.1875
L4.89062 17.1875
L4.89062 26.7031
z
" id="BitstreamVeraSans-Roman-34"/>
      </defs>
      <g style="fill:#008000;" transform="translate(25.206875 234.739821429)scale(0.12 -0.12)">
       <use xlink:href="#BitstreamVeraSans-Roman-33"/>
       <use x="63.623046875" xlink:href="#BitstreamVeraSans-Roman-34"/>
       <use x="127.24609375" xlink:href="#BitstreamVeraSans-Roman-30"/>
      </g>
     </g>
    </g>
    <g id="ytick_5">
     <g id="line2d_16">
      <g>
       <use style="fill:#008000;stroke:#008000;stroke-width:0.5;" x="50.4" xlink:href="#m8427bd86d6" y="178.971428571"/>
      </g>
     </g>
     <g id="text_11">
      <!-- 360 -->
      <defs>
       <path d="
M33.0156 40.375
Q26.375 40.375 22.4844 35.8281
Q18.6094 31.2969 18.6094 23.3906
Q18.6094 15.5312 22.4844 10.9531
Q26.375 6.39062 33.0156 6.39062
Q39.6562 6.39062 43.5312 10.9531
Q47.4062 15.5312 47.4062 23.3906
Q47.4062 31.2969 43.5312 35.8281
Q39.6562 40.375 33.0156 40.375
M52.5938 71.2969
L52.5938 62.3125
Q48.875 64.0625 45.0938 64.9844
Q41.3125 65.9219 37.5938 65.9219
Q27.8281 65.9219 22.6719 59.3281
Q17.5312 52.7344 16.7969 39.4062
Q19.6719 43.6562 24.0156 45.9219
Q28.375 48.1875 33.5938 48.1875
Q44.5781 48.1875 50.9531 41.5156
Q57.3281 34.8594 57.3281 23.3906
Q57.3281 12.1562 50.6875 5.35938
Q44.0469 -1.42188 33.0156 -1.42188
Q20.3594 -1.42188 13.6719 8.26562
Q6.98438 17.9688 6.98438 36.375
Q6.98438 53.6562 15.1875 63.9375
Q23.3906 74.2188 37.2031 74.2188
Q40.9219 74.2188 44.7031 73.4844
Q48.4844 72.75 52.5938 71.2969" id="BitstreamVeraSans-Roman-36"/>
      </defs>
      <g style="fill:#008000;" transform="translate(25.206875 182.282678571)scale(0.12 -0.12)">
       <use xlink:href="#BitstreamVeraSans-Roman-33"/>
       <use x="63.623046875" xlink:href="#BitstreamVeraSans-Roman-36"/>
       <use x="127.24609375" xlink:href="#BitstreamVeraSans-Roman-30"/>
      </g>
     </g>
    </g>
    <g id="ytick_6">
     <g id="line2d_17">
      <g>
       <use style="fill:#008000;stroke:#008000;stroke-width:0.5;" x="50.4" xlink:href="#m8427bd86d6" y="126.514285714"/>
      </g>
     </g>
     <g id="text_12">
      <!-- 380 -->
      <g style="fill:#008000;" transform="translate(25.206875 129.825535714)scale(0.12 -0.12)">
       <use xlink:href="#BitstreamVeraSans-Roman-33"/>
       <use x="63.623046875" xlink:href="#BitstreamVeraSans-Roman-38"/>
       <use x="127.24609375" xlink:href="#BitstreamVeraSans-Roman-30"/>
      </g>
     </g>
    </g>
    <g id="ytick_7">
     <g id="line2d_18">
      <g>
       <use style="fill:#008000;stroke:#008000;stroke-width:0.5;" x="50.4" xlink:href="#m8427bd86d6" y="74.0571428571"/>
      </g>
     </g>
     <g id="text_13">
      <!-- 400 -->
      <g style="fill:#008000;" transform="translate(24.87875 77.3683928571)scale(0.12 -0.12)">
       <use xlink:href="#BitstreamVeraSans-Roman-34"/>
       <use x="63.623046875" xlink:href="#BitstreamVeraSans-Roman-30"/>
       <use x="127.24609375" xlink:href="#BitstreamVeraSans-Roman-30"/>
      </g>
     </g>
    </g>
    <g id="ytick_8">
     <g id="line2d_19">
      <g>
       <use style="fill:#008000;stroke:#008000;stroke-width:0.5;" x="50.4" xlink:href="#m8427bd86d6" y="21.6"/>
      </g>
     </g>
     <g id="text_14">
      <!-- 420 -->
      <g style="fill:#008000;" transform="translate(24.87875 24.91125)scale(0.12 -0.12)">
       <use xlink:href="#BitstreamVeraSans-Roman-34"/>
       <use x="63.623046875" xlink:href="#BitstreamVeraSans-Roman-32"/>
       <use x="127.24609375" xlink:href="#BitstreamVeraSans-Roman-30"/>
      </g>
     </g>
    </g>
    <g id="text_15">
     <!-- Battery Energy, kW-h -->
     <defs>
      <path d="
M54.8906 33.0156
L54.8906 0
L45.9062 0
L45.9062 32.7188
Q45.9062 40.4844 42.875 44.3281
Q39.8438 48.1875 33.7969 48.1875
Q26.5156 48.1875 22.3125 43.5469
Q18.1094 38.9219 18.1094 30.9062
L18.1094 0
L9.07812 0
L9.07812 54.6875
L18.1094 54.6875
L18.1094 46.1875
Q21.3438 51.125 25.7031 53.5625
Q30.0781 56 35.7969 56
Q45.2188 56 50.0469 50.1719
Q54.8906 44.3438 54.8906 33.0156" id="BitstreamVeraSans-Roman-6e"/>
      <path d="
M3.32812 72.9062
L13.2812 72.9062
L28.6094 11.2812
L43.8906 72.9062
L54.9844 72.9062
L70.3125 11.2812
L85.5938 72.9062
L95.6094 72.9062
L77.2969 0
L64.8906 0
L49.5156 63.2812
L33.9844 0
L21.5781 0
z
" id="BitstreamVeraSans-Roman-57"/>
      <path d="
M11.7188 12.4062
L22.0156 12.4062
L22.0156 4
L14.0156 -11.625
L7.71875 -11.625
L11.7188 4
z
" id="BitstreamVeraSans-Roman-2c"/>
      <path d="
M9.07812 75.9844
L18.1094 75.9844
L18.1094 31.1094
L44.9219 54.6875
L56.3906 54.6875
L27.3906 29.1094
L57.625 0
L45.9062 0
L18.1094 26.7031
L18.1094 0
L9.07812 0
z
" id="BitstreamVeraSans-Roman-6b"/>
      <path d="
M9.8125 72.9062
L55.9062 72.9062
L55.9062 64.5938
L19.6719 64.5938
L19.6719 43.0156
L54.3906 43.0156
L54.3906 34.7188
L19.6719 34.7188
L19.6719 8.29688
L56.7812 8.29688
L56.7812 0
L9.8125 0
z
" id="BitstreamVeraSans-Roman-45"/>
      <path d="
M19.6719 34.8125
L19.6719 8.10938
L35.5 8.10938
Q43.4531 8.10938 47.2812 11.4062
Q51.125 14.7031 51.125 21.4844
Q51.125 28.3281 47.2812 31.5625
Q43.4531 34.8125 35.5 34.8125
z

M19.6719 64.7969
L19.6719 42.8281
L34.2812 42.8281
Q41.5 42.8281 45.0312 45.5312
Q48.5781 48.25 48.5781 53.8125
Q48.5781 59.3281 45.0312 62.0625
Q41.5 64.7969 34.2812 64.7969
z

M9.8125 72.9062
L35.0156 72.9062
Q46.2969 72.9062 52.3906 68.2188
Q58.5 63.5312 58.5 54.8906
Q58.5 48.1875 55.375 44.2344
Q52.25 40.2812 46.1875 39.3125
Q53.4688 37.75 57.5 32.7812
Q61.5312 27.8281 61.5312 20.4062
Q61.5312 10.6406 54.8906 5.3125
Q48.25 0 35.9844 0
L9.8125 0
z
" id="BitstreamVeraSans-Roman-42"/>
      <path d="
M32.1719 -5.07812
Q28.375 -14.8438 24.75 -17.8125
Q21.1406 -20.7969 15.0938 -20.7969
L7.90625 -20.7969
L7.90625 -13.2812
L13.1875 -13.2812
Q16.8906 -13.2812 18.9375 -11.5156
Q21 -9.76562 23.4844 -3.21875
L25.0938 0.875
L2.98438 54.6875
L12.5 54.6875
L29.5938 11.9219
L46.6875 54.6875
L56.2031 54.6875
z
" id="BitstreamVeraSans-Roman-79"/>
      <path d="
M56.2031 29.5938
L56.2031 25.2031
L14.8906 25.2031
Q15.4844 15.9219 20.4844 11.0625
Q25.4844 6.20312 34.4219 6.20312
Q39.5938 6.20312 44.4531 7.46875
Q49.3125 8.73438 54.1094 11.2812
L54.1094 2.78125
Q49.2656 0.734375 44.1875 -0.34375
Q39.1094 -1.42188 33.8906 -1.42188
Q20.7969 -1.42188 13.1562 6.1875
Q5.51562 13.8125 5.51562 26.8125
Q5.51562 40.2344 12.7656 48.1094
Q20.0156 56 32.3281 56
Q43.3594 56 49.7812 48.8906
Q56.2031 41.7969 56.2031 29.5938
M47.2188 32.2344
Q47.125 39.5938 43.0938 43.9844
Q39.0625 48.3906 32.4219 48.3906
Q24.9062 48.3906 20.3906 44.1406
Q15.875 39.8906 15.1875 32.1719
z
" id="BitstreamVeraSans-Roman-65"/>
      <path d="
M18.3125 70.2188
L18.3125 54.6875
L36.8125 54.6875
L36.8125 47.7031
L18.3125 47.7031
L18.3125 18.0156
Q18.3125 11.3281 20.1406 9.42188
Q21.9688 7.51562 27.5938 7.51562
L36.8125 7.51562
L36.8125 0
L27.5938 0
Q17.1875 0 13.2344 3.875
Q9.28125 7.76562 9.28125 18.0156
L9.28125 47.7031
L2.6875 47.7031
L2.6875 54.6875
L9.28125 54.6875
L9.28125 70.2188
z
" id="BitstreamVeraSans-Roman-74"/>
      <path d="
M41.1094 46.2969
Q39.5938 47.1719 37.8125 47.5781
Q36.0312 48 33.8906 48
Q26.2656 48 22.1875 43.0469
Q18.1094 38.0938 18.1094 28.8125
L18.1094 0
L9.07812 0
L9.07812 54.6875
L18.1094 54.6875
L18.1094 46.1875
Q20.9531 51.1719 25.4844 53.5781
Q30.0312 56 36.5312 56
Q37.4531 56 38.5781 55.875
Q39.7031 55.7656 41.0625 55.5156
z
" id="BitstreamVeraSans-Roman-72"/>
      <path d="
M45.4062 27.9844
Q45.4062 37.75 41.375 43.1094
Q37.3594 48.4844 30.0781 48.4844
Q22.8594 48.4844 18.8281 43.1094
Q14.7969 37.75 14.7969 27.9844
Q14.7969 18.2656 18.8281 12.8906
Q22.8594 7.51562 30.0781 7.51562
Q37.3594 7.51562 41.375 12.8906
Q45.4062 18.2656 45.4062 27.9844
M54.3906 6.78125
Q54.3906 -7.17188 48.1875 -13.9844
Q42 -20.7969 29.2031 -20.7969
Q24.4688 -20.7969 20.2656 -20.0938
Q16.0625 -19.3906 12.1094 -17.9219
L12.1094 -9.1875
Q16.0625 -11.3281 19.9219 -12.3438
Q23.7812 -13.375 27.7812 -13.375
Q36.625 -13.375 41.0156 -8.76562
Q45.4062 -4.15625 45.4062 5.17188
L45.4062 9.625
Q42.625 4.78125 38.2812 2.39062
Q33.9375 0 27.875 0
Q17.8281 0 11.6719 7.65625
Q5.51562 15.3281 5.51562 27.9844
Q5.51562 40.6719 11.6719 48.3281
Q17.8281 56 27.875 56
Q33.9375 56 38.2812 53.6094
Q42.625 51.2188 45.4062 46.3906
L45.4062 54.6875
L54.3906 54.6875
z
" id="BitstreamVeraSans-Roman-67"/>
      <path d="
M4.89062 31.3906
L31.2031 31.3906
L31.2031 23.3906
L4.89062 23.3906
z
" id="BitstreamVeraSans-Roman-2d"/>
     </defs>
     <g style="fill:#008000;" transform="translate(16.1353125 300.5409375)rotate(-90.0)scale(0.18 -0.18)">
      <use xlink:href="#BitstreamVeraSans-Roman-42"/>
      <use x="68.603515625" xlink:href="#BitstreamVeraSans-Roman-61"/>
      <use x="129.8828125" xlink:href="#BitstreamVeraSans-Roman-74"/>
      <use x="169.091796875" xlink:href="#BitstreamVeraSans-Roman-74"/>
      <use x="208.30078125" xlink:href="#BitstreamVeraSans-Roman-65"/>
      <use x="269.82421875" xlink:href="#BitstreamVeraSans-Roman-72"/>
      <use x="310.9375" xlink:href="#BitstreamVeraSans-Roman-79"/>
      <use x="370.1171875" xlink:href="#BitstreamVeraSans-Roman-20"/>
      <use x="401.904296875" xlink:href="#BitstreamVeraSans-Roman-45"/>
      <use x="465.087890625" xlink:href="#BitstreamVeraSans-Roman-6e"/>
      <use x="528.466796875" xlink:href="#BitstreamVeraSans-Roman-65"/>
      <use x="589.990234375" xlink:href="#BitstreamVeraSans-Roman-72"/>
      <use x="629.353515625" xlink:href="#BitstreamVeraSans-Roman-67"/>
      <use x="692.830078125" xlink:href="#BitstreamVeraSans-Roman-79"/>
      <use x="752.009765625" xlink:href="#BitstreamVeraSans-Roman-2c"/>
      <use x="783.796875" xlink:href="#BitstreamVeraSans-Roman-20"/>
      <use x="815.583984375" xlink:href="#BitstreamVeraSans-Roman-6b"/>
      <use x="873.494140625" xlink:href="#BitstreamVeraSans-Roman-57"/>
      <use x="968.37109375" xlink:href="#BitstreamVeraSans-Roman-2d"/>
      <use x="1004.45507812" xlink:href="#BitstreamVeraSans-Roman-68"/>
     </g>
    </g>
   </g>
   <g id="patch_3">
    <path d="
M50.4 21.6
L468 21.6" style="fill:none;stroke:#000000;"/>
   </g>
   <g id="patch_4">
    <path d="
M468 388.8
L468 21.6" style="fill:none;stroke:#000000;"/>
   </g>
   <g id="patch_5">
    <path d="
M50.4 388.8
L468 388.8" style="fill:none;stroke:#000000;"/>
   </g>
   <g id="patch_6">
    <path d="
M50.4 388.8
L50.4 21.6" style="fill:none;stroke:#000000;"/>
   </g>
  </g>
  <g id="axes_2">
   <g id="line2d_20">
    <path clip-path="url(#pd6956b075c)" d="
M50.4 217.429
L68.5565 214.277
L86.713 211.049
L104.87 207.74
L123.026 204.348
L141.183 200.872
L159.339 197.311
L177.496 193.661
L195.652 189.922
L213.809 186.091
L231.965 182.166
L250.122 178.144
L268.278 174.029
L286.435 169.812
L304.591 165.495
L322.748 161.073
L340.904 156.547
L359.061 151.912
L377.217 147.153
L395.374 142.311
L413.53 137.338
L431.687 132.251
L449.843 127.044
L468 121.712" style="fill:none;stroke:#ff0000;stroke-dasharray:6.000000,6.000000;stroke-dashoffset:0.0;stroke-width:3;"/>
   </g>
   <g id="matplotlib.axis_3">
    <g id="ytick_9">
     <g id="line2d_21">
      <defs>
       <path d="
M0 0
L-4 0" id="m56d188c420" style="stroke:#ff0000;stroke-width:0.5;"/>
      </defs>
      <g>
       <use style="fill:#ff0000;stroke:#ff0000;stroke-width:0.5;" x="468.0" xlink:href="#m56d188c420" y="388.8"/>
      </g>
     </g>
     <g id="text_16">
      <!-- 280 -->
      <g style="fill:#ff0000;" transform="translate(472.0 392.11125)scale(0.12 -0.12)">
       <use xlink:href="#BitstreamVeraSans-Roman-32"/>
       <use x="63.623046875" xlink:href="#BitstreamVeraSans-Roman-38"/>
       <use x="127.24609375" xlink:href="#BitstreamVeraSans-Roman-30"/>
      </g>
     </g>
    </g>
    <g id="ytick_10">
     <g id="line2d_22">
      <g>
       <use style="fill:#ff0000;stroke:#ff0000;stroke-width:0.5;" x="468.0" xlink:href="#m56d188c420" y="336.342857143"/>
      </g>
     </g>
     <g id="text_17">
      <!-- 300 -->
      <g style="fill:#ff0000;" transform="translate(472.0 339.654107143)scale(0.12 -0.12)">
       <use xlink:href="#BitstreamVeraSans-Roman-33"/>
       <use x="63.623046875" xlink:href="#BitstreamVeraSans-Roman-30"/>
       <use x="127.24609375" xlink:href="#BitstreamVeraSans-Roman-30"/>
      </g>
     </g>
    </g>
    <g id="ytick_11">
     <g id="line2d_23">
      <g>
       <use style="fill:#ff0000;stroke:#ff0000;stroke-width:0.5;" x="468.0" xlink:href="#m56d188c420" y="283.885714286"/>
      </g>
     </g>
     <g id="text_18">
      <!-- 320 -->
      <g style="fill:#ff0000;" transform="translate(472.0 287.196964286)scale(0.12 -0.12)">
       <use xlink:href="#BitstreamVeraSans-Roman-33"/>
       <use x="63.623046875" xlink:href="#BitstreamVeraSans-Roman-32"/>
       <use x="127.24609375" xlink:href="#BitstreamVeraSans-Roman-30"/>
      </g>
     </g>
    </g>
    <g id="ytick_12">
     <g id="line2d_24">
      <g>
       <use style="fill:#ff0000;stroke:#ff0000;stroke-width:0.5;" x="468.0" xlink:href="#m56d188c420" y="231.428571429"/>
      </g>
     </g>
     <g id="text_19">
      <!-- 340 -->
      <g style="fill:#ff0000;" transform="translate(472.0 234.739821429)scale(0.12 -0.12)">
       <use xlink:href="#BitstreamVeraSans-Roman-33"/>
       <use x="63.623046875" xlink:href="#BitstreamVeraSans-Roman-34"/>
       <use x="127.24609375" xlink:href="#BitstreamVeraSans-Roman-30"/>
      </g>
     </g>
    </g>
    <g id="ytick_13">
     <g id="line2d_25">
      <g>
       <use style="fill:#ff0000;stroke:#ff0000;stroke-width:0.5;" x="468.0" xlink:href="#m56d188c420" y="178.971428571"/>
      </g>
     </g>
     <g id="text_20">
      <!-- 360 -->
      <g style="fill:#ff0000;" transform="translate(472.0 182.282678571)scale(0.12 -0.12)">
       <use xlink:href="#BitstreamVeraSans-Roman-33"/>
       <use x="63.623046875" xlink:href="#BitstreamVeraSans-Roman-36"/>
       <use x="127.24609375" xlink:href="#BitstreamVeraSans-Roman-30"/>
      </g>
     </g>
    </g>
    <g id="ytick_14">
     <g id="line2d_26">
      <g>
       <use style="fill:#ff0000;stroke:#ff0000;stroke-width:0.5;" x="468.0" xlink:href="#m56d188c420" y="126.514285714"/>
      </g>
     </g>
     <g id="text_21">
      <!-- 380 -->
      <g style="fill:#ff0000;" transform="translate(472.0 129.825535714)scale(0.12 -0.12)">
       <use xlink:href="#BitstreamVeraSans-Roman-33"/>
       <use x="63.623046875" xlink:href="#BitstreamVeraSans-Roman-38"/>
       <use x="127.24609375" xlink:href="#BitstreamVeraSans-Roman-30"/>
      </g>
     </g>
    </g>
    <g id="ytick_15">
     <g id="line2d_27">
      <g>
       <use style="fill:#ff0000;stroke:#ff0000;stroke-width:0.5;" x="468.0" xlink:href="#m56d188c420" y="74.0571428571"/>
      </g>
     </g>
     <g id="text_22">
      <!-- 400 -->
      <g style="fill:#ff0000;" transform="translate(472.0 77.3683928571)scale(0.12 -0.12)">
       <use xlink:href="#BitstreamVeraSans-Roman-34"/>
       <use x="63.623046875" xlink:href="#BitstreamVeraSans-Roman-30"/>
       <use x="127.24609375" xlink:href="#BitstreamVeraSans-Roman-30"/>
      </g>
     </g>
    </g>
    <g id="ytick_16">
     <g id="line2d_28">
      <g>
       <use style="fill:#ff0000;stroke:#ff0000;stroke-width:0.5;" x="468.0" xlink:href="#m56d188c420" y="21.6"/>
      </g>
     </g>
     <g id="text_23">
      <!-- 420 -->
      <g style="fill:#ff0000;" transform="translate(472.0 24.91125)scale(0.12 -0.12)">
       <use xlink:href="#BitstreamVeraSans-Roman-34"/>
       <use x="63.623046875" xlink:href="#BitstreamVeraSans-Roman-32"/>
       <use x="127.24609375" xlink:href="#BitstreamVeraSans-Roman-30"/>
      </g>
     </g>
    </g>
    <g id="text_24">
     <!-- Max Compressor Pwr Req, kW -->
     <defs>
      <path d="
M52 44.1875
Q55.375 50.25 60.0625 53.125
Q64.75 56 71.0938 56
Q79.6406 56 84.2812 50.0156
Q88.9219 44.0469 88.9219 33.0156
L88.9219 0
L79.8906 0
L79.8906 32.7188
Q79.8906 40.5781 77.0938 44.375
Q74.3125 48.1875 68.6094 48.1875
Q61.625 48.1875 57.5625 43.5469
Q53.5156 38.9219 53.5156 30.9062
L53.5156 0
L44.4844 0
L44.4844 32.7188
Q44.4844 40.625 41.7031 44.4062
Q38.9219 48.1875 33.1094 48.1875
Q26.2188 48.1875 22.1562 43.5312
Q18.1094 38.875 18.1094 30.9062
L18.1094 0
L9.07812 0
L9.07812 54.6875
L18.1094 54.6875
L18.1094 46.1875
Q21.1875 51.2188 25.4844 53.6094
Q29.7812 56 35.6875 56
Q41.6562 56 45.8281 52.9688
Q50 49.9531 52 44.1875" id="BitstreamVeraSans-Roman-6d"/>
      <path d="
M44.3906 34.1875
Q47.5625 33.1094 50.5625 29.5938
Q53.5625 26.0781 56.5938 19.9219
L66.6094 0
L56 0
L46.6875 18.7031
Q43.0625 26.0312 39.6719 28.4219
Q36.2812 30.8125 30.4219 30.8125
L19.6719 30.8125
L19.6719 0
L9.8125 0
L9.8125 72.9062
L32.0781 72.9062
Q44.5781 72.9062 50.7344 67.6719
Q56.8906 62.4531 56.8906 51.9062
Q56.8906 45.0156 53.6875 40.4688
Q50.4844 35.9375 44.3906 34.1875
M19.6719 64.7969
L19.6719 38.9219
L32.0781 38.9219
Q39.2031 38.9219 42.8438 42.2188
Q46.4844 45.5156 46.4844 51.9062
Q46.4844 58.2969 42.8438 61.5469
Q39.2031 64.7969 32.0781 64.7969
z
" id="BitstreamVeraSans-Roman-52"/>
      <path d="
M64.4062 67.2812
L64.4062 56.8906
Q59.4219 61.5312 53.7812 63.8125
Q48.1406 66.1094 41.7969 66.1094
Q29.2969 66.1094 22.6562 58.4688
Q16.0156 50.8281 16.0156 36.375
Q16.0156 21.9688 22.6562 14.3281
Q29.2969 6.6875 41.7969 6.6875
Q48.1406 6.6875 53.7812 8.98438
Q59.4219 11.2812 64.4062 15.9219
L64.4062 5.60938
Q59.2344 2.09375 53.4375 0.328125
Q47.6562 -1.42188 41.2188 -1.42188
Q24.6562 -1.42188 15.125 8.70312
Q5.60938 18.8438 5.60938 36.375
Q5.60938 53.9531 15.125 64.0781
Q24.6562 74.2188 41.2188 74.2188
Q47.75 74.2188 53.5312 72.4844
Q59.3281 70.75 64.4062 67.2812" id="BitstreamVeraSans-Roman-43"/>
      <path d="
M4.20312 54.6875
L13.1875 54.6875
L24.4219 12.0156
L35.5938 54.6875
L46.1875 54.6875
L57.4219 12.0156
L68.6094 54.6875
L77.5938 54.6875
L63.2812 0
L52.6875 0
L40.9219 44.8281
L29.1094 0
L18.5 0
z
" id="BitstreamVeraSans-Roman-77"/>
      <path d="
M44.2812 53.0781
L44.2812 44.5781
Q40.4844 46.5312 36.375 47.5
Q32.2812 48.4844 27.875 48.4844
Q21.1875 48.4844 17.8438 46.4375
Q14.5 44.3906 14.5 40.2812
Q14.5 37.1562 16.8906 35.375
Q19.2812 33.5938 26.5156 31.9844
L29.5938 31.2969
Q39.1562 29.25 43.1875 25.5156
Q47.2188 21.7812 47.2188 15.0938
Q47.2188 7.46875 41.1875 3.01562
Q35.1562 -1.42188 24.6094 -1.42188
Q20.2188 -1.42188 15.4531 -0.5625
Q10.6875 0.296875 5.42188 2
L5.42188 11.2812
Q10.4062 8.6875 15.2344 7.39062
Q20.0625 6.10938 24.8125 6.10938
Q31.1562 6.10938 34.5625 8.28125
Q37.9844 10.4531 37.9844 14.4062
Q37.9844 18.0625 35.5156 20.0156
Q33.0625 21.9688 24.7031 23.7812
L21.5781 24.5156
Q13.2344 26.2656 9.51562 29.9062
Q5.8125 33.5469 5.8125 39.8906
Q5.8125 47.6094 11.2812 51.7969
Q16.75 56 26.8125 56
Q31.7812 56 36.1719 55.2656
Q40.5781 54.5469 44.2812 53.0781" id="BitstreamVeraSans-Roman-73"/>
      <path d="
M18.1094 8.20312
L18.1094 -20.7969
L9.07812 -20.7969
L9.07812 54.6875
L18.1094 54.6875
L18.1094 46.3906
Q20.9531 51.2656 25.2656 53.625
Q29.5938 56 35.5938 56
Q45.5625 56 51.7812 48.0938
Q58.0156 40.1875 58.0156 27.2969
Q58.0156 14.4062 51.7812 6.48438
Q45.5625 -1.42188 35.5938 -1.42188
Q29.5938 -1.42188 25.2656 0.953125
Q20.9531 3.32812 18.1094 8.20312
M48.6875 27.2969
Q48.6875 37.2031 44.6094 42.8438
Q40.5312 48.4844 33.4062 48.4844
Q26.2656 48.4844 22.1875 42.8438
Q18.1094 37.2031 18.1094 27.2969
Q18.1094 17.3906 22.1875 11.75
Q26.2656 6.10938 33.4062 6.10938
Q40.5312 6.10938 44.6094 11.75
Q48.6875 17.3906 48.6875 27.2969" id="BitstreamVeraSans-Roman-70"/>
      <path d="
M14.7969 27.2969
Q14.7969 17.3906 18.875 11.75
Q22.9531 6.10938 30.0781 6.10938
Q37.2031 6.10938 41.2969 11.75
Q45.4062 17.3906 45.4062 27.2969
Q45.4062 37.2031 41.2969 42.8438
Q37.2031 48.4844 30.0781 48.4844
Q22.9531 48.4844 18.875 42.8438
Q14.7969 37.2031 14.7969 27.2969
M45.4062 8.20312
Q42.5781 3.32812 38.25 0.953125
Q33.9375 -1.42188 27.875 -1.42188
Q17.9688 -1.42188 11.7344 6.48438
Q5.51562 14.4062 5.51562 27.2969
Q5.51562 40.1875 11.7344 48.0938
Q17.9688 56 27.875 56
Q33.9375 56 38.25 53.625
Q42.5781 51.2656 45.4062 46.3906
L45.4062 54.6875
L54.3906 54.6875
L54.3906 -20.7969
L45.4062 -20.7969
z
" id="BitstreamVeraSans-Roman-71"/>
     </defs>
     <g style="fill:#ff0000;" transform="translate(512.1984375 339.40265625)rotate(-90.0)scale(0.18 -0.18)">
      <use xlink:href="#BitstreamVeraSans-Roman-4d"/>
      <use x="86.279296875" xlink:href="#BitstreamVeraSans-Roman-61"/>
      <use x="147.55859375" xlink:href="#BitstreamVeraSans-Roman-78"/>
      <use x="206.73828125" xlink:href="#BitstreamVeraSans-Roman-20"/>
      <use x="238.525390625" xlink:href="#BitstreamVeraSans-Roman-43"/>
      <use x="308.349609375" xlink:href="#BitstreamVeraSans-Roman-6f"/>
      <use x="369.53125" xlink:href="#BitstreamVeraSans-Roman-6d"/>
      <use x="466.943359375" xlink:href="#BitstreamVeraSans-Roman-70"/>
      <use x="530.419921875" xlink:href="#BitstreamVeraSans-Roman-72"/>
      <use x="569.283203125" xlink:href="#BitstreamVeraSans-Roman-65"/>
      <use x="630.806640625" xlink:href="#BitstreamVeraSans-Roman-73"/>
      <use x="682.90625" xlink:href="#BitstreamVeraSans-Roman-73"/>
      <use x="735.005859375" xlink:href="#BitstreamVeraSans-Roman-6f"/>
      <use x="796.1875" xlink:href="#BitstreamVeraSans-Roman-72"/>
      <use x="837.30078125" xlink:href="#BitstreamVeraSans-Roman-20"/>
      <use x="869.087890625" xlink:href="#BitstreamVeraSans-Roman-50"/>
      <use x="929.390625" xlink:href="#BitstreamVeraSans-Roman-77"/>
      <use x="1011.17773438" xlink:href="#BitstreamVeraSans-Roman-72"/>
      <use x="1052.29101562" xlink:href="#BitstreamVeraSans-Roman-20"/>
      <use x="1084.078125" xlink:href="#BitstreamVeraSans-Roman-52"/>
      <use x="1149.06054688" xlink:href="#BitstreamVeraSans-Roman-65"/>
      <use x="1210.58398438" xlink:href="#BitstreamVeraSans-Roman-71"/>
      <use x="1274.06054688" xlink:href="#BitstreamVeraSans-Roman-2c"/>
      <use x="1305.84765625" xlink:href="#BitstreamVeraSans-Roman-20"/>
      <use x="1337.63476562" xlink:href="#BitstreamVeraSans-Roman-6b"/>
      <use x="1395.54492188" xlink:href="#BitstreamVeraSans-Roman-57"/>
     </g>
    </g>
   </g>
  </g>
  <g id="axes_3">
   <g id="line2d_29">
    <path clip-path="url(#pd6956b075c)" d="
M50.4 98.4447
L68.5565 106.495
L86.713 114.316
L104.87 121.917
L123.026 129.307
L141.183 136.494
L159.339 143.487
L177.496 150.292
L195.652 156.918
L213.809 163.37
L231.965 169.656
L250.122 175.781
L268.278 181.752
L286.435 187.574
L304.591 193.252
L322.748 198.791
L340.904 204.197
L359.061 209.474
L377.217 214.626
L395.374 219.657
L413.53 224.572
L431.687 229.374
L449.843 234.067
L468 238.654" style="fill:none;stroke:#0000ff;stroke-linecap:square;stroke-width:3;"/>
   </g>
   <g id="matplotlib.axis_4">
    <g id="ytick_17">
     <g id="line2d_30">
      <defs>
       <path d="
M0 0
L-4 0" id="m65909dc778" style="stroke:#0000ff;stroke-width:0.5;"/>
      </defs>
      <g>
       <use style="fill:#0000ff;stroke:#0000ff;stroke-width:0.5;" x="530.64" xlink:href="#m65909dc778" y="388.8"/>
      </g>
     </g>
     <g id="text_25">
      <!-- 0.48 -->
      <g style="fill:#0000ff;" transform="translate(534.64 392.11125)scale(0.12 -0.12)">
       <use xlink:href="#BitstreamVeraSans-Roman-30"/>
       <use x="63.623046875" xlink:href="#BitstreamVeraSans-Roman-2e"/>
       <use x="95.41015625" xlink:href="#BitstreamVeraSans-Roman-34"/>
       <use x="159.033203125" xlink:href="#BitstreamVeraSans-Roman-38"/>
      </g>
     </g>
    </g>
    <g id="ytick_18">
     <g id="line2d_31">
      <g>
       <use style="fill:#0000ff;stroke:#0000ff;stroke-width:0.5;" x="530.64" xlink:href="#m65909dc778" y="336.342857143"/>
      </g>
     </g>
     <g id="text_26">
      <!-- 0.52 -->
      <g style="fill:#0000ff;" transform="translate(534.64 339.654107143)scale(0.12 -0.12)">
       <use xlink:href="#BitstreamVeraSans-Roman-30"/>
       <use x="63.623046875" xlink:href="#BitstreamVeraSans-Roman-2e"/>
       <use x="95.41015625" xlink:href="#BitstreamVeraSans-Roman-35"/>
       <use x="159.033203125" xlink:href="#BitstreamVeraSans-Roman-32"/>
      </g>
     </g>
    </g>
    <g id="ytick_19">
     <g id="line2d_32">
      <g>
       <use style="fill:#0000ff;stroke:#0000ff;stroke-width:0.5;" x="530.64" xlink:href="#m65909dc778" y="283.885714286"/>
      </g>
     </g>
     <g id="text_27">
      <!-- 0.56 -->
      <g style="fill:#0000ff;" transform="translate(534.64 287.196964286)scale(0.12 -0.12)">
       <use xlink:href="#BitstreamVeraSans-Roman-30"/>
       <use x="63.623046875" xlink:href="#BitstreamVeraSans-Roman-2e"/>
       <use x="95.41015625" xlink:href="#BitstreamVeraSans-Roman-35"/>
       <use x="159.033203125" xlink:href="#BitstreamVeraSans-Roman-36"/>
      </g>
     </g>
    </g>
    <g id="ytick_20">
     <g id="line2d_33">
      <g>
       <use style="fill:#0000ff;stroke:#0000ff;stroke-width:0.5;" x="530.64" xlink:href="#m65909dc778" y="231.428571429"/>
      </g>
     </g>
     <g id="text_28">
      <!-- 0.60 -->
      <g style="fill:#0000ff;" transform="translate(534.64 234.739821429)scale(0.12 -0.12)">
       <use xlink:href="#BitstreamVeraSans-Roman-30"/>
       <use x="63.623046875" xlink:href="#BitstreamVeraSans-Roman-2e"/>
       <use x="95.41015625" xlink:href="#BitstreamVeraSans-Roman-36"/>
       <use x="159.033203125" xlink:href="#BitstreamVeraSans-Roman-30"/>
      </g>
     </g>
    </g>
    <g id="ytick_21">
     <g id="line2d_34">
      <g>
       <use style="fill:#0000ff;stroke:#0000ff;stroke-width:0.5;" x="530.64" xlink:href="#m65909dc778" y="178.971428571"/>
      </g>
     </g>
     <g id="text_29">
      <!-- 0.64 -->
      <g style="fill:#0000ff;" transform="translate(534.64 182.282678571)scale(0.12 -0.12)">
       <use xlink:href="#BitstreamVeraSans-Roman-30"/>
       <use x="63.623046875" xlink:href="#BitstreamVeraSans-Roman-2e"/>
       <use x="95.41015625" xlink:href="#BitstreamVeraSans-Roman-36"/>
       <use x="159.033203125" xlink:href="#BitstreamVeraSans-Roman-34"/>
      </g>
     </g>
    </g>
    <g id="ytick_22">
     <g id="line2d_35">
      <g>
       <use style="fill:#0000ff;stroke:#0000ff;stroke-width:0.5;" x="530.64" xlink:href="#m65909dc778" y="126.514285714"/>
      </g>
     </g>
     <g id="text_30">
      <!-- 0.68 -->
      <g style="fill:#0000ff;" transform="translate(534.64 129.825535714)scale(0.12 -0.12)">
       <use xlink:href="#BitstreamVeraSans-Roman-30"/>
       <use x="63.623046875" xlink:href="#BitstreamVeraSans-Roman-2e"/>
       <use x="95.41015625" xlink:href="#BitstreamVeraSans-Roman-36"/>
       <use x="159.033203125" xlink:href="#BitstreamVeraSans-Roman-38"/>
      </g>
     </g>
    </g>
    <g id="ytick_23">
     <g id="line2d_36">
      <g>
       <use style="fill:#0000ff;stroke:#0000ff;stroke-width:0.5;" x="530.64" xlink:href="#m65909dc778" y="74.0571428571"/>
      </g>
     </g>
     <g id="text_31">
      <!-- 0.72 -->
      <g style="fill:#0000ff;" transform="translate(534.64 77.3683928571)scale(0.12 -0.12)">
       <use xlink:href="#BitstreamVeraSans-Roman-30"/>
       <use x="63.623046875" xlink:href="#BitstreamVeraSans-Roman-2e"/>
       <use x="95.41015625" xlink:href="#BitstreamVeraSans-Roman-37"/>
       <use x="159.033203125" xlink:href="#BitstreamVeraSans-Roman-32"/>
      </g>
     </g>
    </g>
    <g id="ytick_24">
     <g id="line2d_37">
      <g>
       <use style="fill:#0000ff;stroke:#0000ff;stroke-width:0.5;" x="530.64" xlink:href="#m65909dc778" y="21.6"/>
      </g>
     </g>
     <g id="text_32">
      <!-- 0.76 -->
      <g style="fill:#0000ff;" transform="translate(534.64 24.91125)scale(0.12 -0.12)">
       <use xlink:href="#BitstreamVeraSans-Roman-30"/>
       <use x="63.623046875" xlink:href="#BitstreamVeraSans-Roman-2e"/>
       <use x="95.41015625" xlink:href="#BitstreamVeraSans-Roman-37"/>
       <use x="159.033203125" xlink:href="#BitstreamVeraSans-Roman-36"/>
      </g>
     </g>
    </g>
    <g id="text_33">
     <!-- Total Mission Time, h -->
     <defs>
      <path d="
M9.42188 54.6875
L18.4062 54.6875
L18.4062 0
L9.42188 0
z

M9.42188 75.9844
L18.4062 75.9844
L18.4062 64.5938
L9.42188 64.5938
z
" id="BitstreamVeraSans-Roman-69"/>
      <path d="
M-0.296875 72.9062
L61.375 72.9062
L61.375 64.5938
L35.5 64.5938
L35.5 0
L25.5938 0
L25.5938 64.5938
L-0.296875 64.5938
z
" id="BitstreamVeraSans-Roman-54"/>
      <path d="
M9.42188 75.9844
L18.4062 75.9844
L18.4062 0
L9.42188 0
z
" id="BitstreamVeraSans-Roman-6c"/>
     </defs>
     <g style="fill:#0000ff;" transform="translate(578.5715625 297.99984375)rotate(-90.0)scale(0.18 -0.18)">
      <use xlink:href="#BitstreamVeraSans-Roman-54"/>
      <use x="44.083984375" xlink:href="#BitstreamVeraSans-Roman-6f"/>
      <use x="105.265625" xlink:href="#BitstreamVeraSans-Roman-74"/>
      <use x="144.474609375" xlink:href="#BitstreamVeraSans-Roman-61"/>
      <use x="205.75390625" xlink:href="#BitstreamVeraSans-Roman-6c"/>
      <use x="233.537109375" xlink:href="#BitstreamVeraSans-Roman-20"/>
      <use x="265.32421875" xlink:href="#BitstreamVeraSans-Roman-4d"/>
      <use x="351.603515625" xlink:href="#BitstreamVeraSans-Roman-69"/>
      <use x="379.38671875" xlink:href="#BitstreamVeraSans-Roman-73"/>
      <use x="431.486328125" xlink:href="#BitstreamVeraSans-Roman-73"/>
      <use x="483.5859375" xlink:href="#BitstreamVeraSans-Roman-69"/>
      <use x="511.369140625" xlink:href="#BitstreamVeraSans-Roman-6f"/>
      <use x="572.55078125" xlink:href="#BitstreamVeraSans-Roman-6e"/>
      <use x="635.9296875" xlink:href="#BitstreamVeraSans-Roman-20"/>
      <use x="667.716796875" xlink:href="#BitstreamVeraSans-Roman-54"/>
      <use x="725.67578125" xlink:href="#BitstreamVeraSans-Roman-69"/>
      <use x="753.458984375" xlink:href="#BitstreamVeraSans-Roman-6d"/>
      <use x="850.87109375" xlink:href="#BitstreamVeraSans-Roman-65"/>
      <use x="912.39453125" xlink:href="#BitstreamVeraSans-Roman-2c"/>
      <use x="944.181640625" xlink:href="#BitstreamVeraSans-Roman-20"/>
      <use x="975.96875" xlink:href="#BitstreamVeraSans-Roman-68"/>
     </g>
    </g>
   </g>
   <g id="patch_7">
    <path d="
M50.4 21.6
L468 21.6" style="fill:none;stroke:#000000;"/>
   </g>
   <g id="patch_8">
    <path d="
M530.64 388.8
L530.64 21.6" style="fill:none;stroke:#000000;"/>
   </g>
   <g id="patch_9">
    <path d="
M50.4 388.8
L468 388.8" style="fill:none;stroke:#000000;"/>
   </g>
   <g id="patch_10">
    <path d="
M50.4 388.8
L50.4 21.6" style="fill:none;stroke:#000000;"/>
   </g>
  </g>
  <g id="text_34">
   <!-- Power, kW -->
   <g style="fill:#ff0000;" transform="translate(367.2 129.6)scale(0.12 -0.12)">
    <use xlink:href="#BitstreamVeraSans-Roman-50"/>
    <use x="56.677734375" xlink:href="#BitstreamVeraSans-Roman-6f"/>
    <use x="117.859375" xlink:href="#BitstreamVeraSans-Roman-77"/>
    <use x="199.646484375" xlink:href="#BitstreamVeraSans-Roman-65"/>
    <use x="261.169921875" xlink:href="#BitstreamVeraSans-Roman-72"/>
    <use x="302.283203125" xlink:href="#BitstreamVeraSans-Roman-2c"/>
    <use x="334.0703125" xlink:href="#BitstreamVeraSans-Roman-20"/>
    <use x="365.857421875" xlink:href="#BitstreamVeraSans-Roman-6b"/>
    <use x="423.767578125" xlink:href="#BitstreamVeraSans-Roman-57"/>
   </g>
  </g>
  <g id="text_35">
   <!-- Battery, kW-h -->
   <g style="fill:#008000;" transform="translate(356.4 336.96)scale(0.12 -0.12)">
    <use xlink:href="#BitstreamVeraSans-Roman-42"/>
    <use x="68.603515625" xlink:href="#BitstreamVeraSans-Roman-61"/>
    <use x="129.8828125" xlink:href="#BitstreamVeraSans-Roman-74"/>
    <use x="169.091796875" xlink:href="#BitstreamVeraSans-Roman-74"/>
    <use x="208.30078125" xlink:href="#BitstreamVeraSans-Roman-65"/>
    <use x="269.82421875" xlink:href="#BitstreamVeraSans-Roman-72"/>
    <use x="310.9375" xlink:href="#BitstreamVeraSans-Roman-79"/>
    <use x="370.1171875" xlink:href="#BitstreamVeraSans-Roman-2c"/>
    <use x="401.904296875" xlink:href="#BitstreamVeraSans-Roman-20"/>
    <use x="433.69140625" xlink:href="#BitstreamVeraSans-Roman-6b"/>
    <use x="491.6015625" xlink:href="#BitstreamVeraSans-Roman-57"/>
    <use x="586.478515625" xlink:href="#BitstreamVeraSans-Roman-2d"/>
    <use x="622.5625" xlink:href="#BitstreamVeraSans-Roman-68"/>
   </g>
  </g>
  <g id="text_36">
   <!-- Time, h -->
   <g style="fill:#0000ff;" transform="translate(374.4 259.2)scale(0.12 -0.12)">
    <use xlink:href="#BitstreamVeraSans-Roman-54"/>
    <use x="57.958984375" xlink:href="#BitstreamVeraSans-Roman-69"/>
    <use x="85.7421875" xlink:href="#BitstreamVeraSans-Roman-6d"/>
    <use x="183.154296875" xlink:href="#BitstreamVeraSans-Roman-65"/>
    <use x="244.677734375" xlink:href="#BitstreamVeraSans-Roman-2c"/>
    <use x="276.46484375" xlink:href="#BitstreamVeraSans-Roman-20"/>
    <use x="308.251953125" xlink:href="#BitstreamVeraSans-Roman-68"/>
   </g>
  </g>
 </g>
 <defs>
  <clipPath id="pd6956b075c">
   <rect height="367.2" width="417.6" x="50.4" y="21.6"/>
  </clipPath>
 </defs>
</svg>
